<svg xmlns="http://www.w3.org/2000/svg" aria-hidden="true" style="position:absolute;width:0;height:0;overflow:hidden">
  <defs>
    <symbol id="icon-mob-menu" viewBox="0 0 32 32">
      <path
        d="M4.799 8.001a1.6 1.6 0 0 1 1.6-1.6h19.2a1.6 1.6 0 0 1 0 3.2h-19.2a1.6 1.6 0 0 1-1.6-1.6zM4.799 16.001a1.6 1.6 0 0 1 1.6-1.6h19.2a1.6 1.6 0 0 1 0 3.2h-19.2a1.6 1.6 0 0 1-1.6-1.6zM4.799 24.001a1.6 1.6 0 0 1 1.6-1.6h19.2a1.6 1.6 0 0 1 0 3.2h-19.2a1.6 1.6 0 0 1-1.6-1.6z" />
    </symbol>
    <symbol id="icon-close" viewBox="0 0 32 32">
      <path
        d="M31.708 25.708 22 16l9.708-9.708a1 1 0 0 0 0-1.414L27.122.292a1 1 0 0 0-1.414-.001L16 9.999 6.292.291a.998.998 0 0 0-1.414.001L.292 4.878a1 1 0 0 0 0 1.414L10 16 .292 25.708a.999.999 0 0 0 0 1.414l4.586 4.586a1 1 0 0 0 1.414 0L16 22l9.708 9.708a1 1 0 0 0 1.414 0l4.586-4.586a.999.999 0 0 0 0-1.414z" />
    </symbol>
    <symbol id="icon-instagram" viewBox="0 0 32 32">
      <path
        d="M16 2.881c4.275 0 4.781.019 6.462.094 1.563.069 2.406.331 2.969.55a4.952 4.952 0 0 1 1.837 1.194 5.015 5.015 0 0 1 1.2 1.838c.219.563.481 1.412.55 2.969.075 1.688.094 2.194.094 6.463s-.019 4.781-.094 6.463c-.069 1.563-.331 2.406-.55 2.969a4.94 4.94 0 0 1-1.194 1.837 5.02 5.02 0 0 1-1.837 1.2c-.563.219-1.413.481-2.969.55-1.688.075-2.194.094-6.463.094s-4.781-.019-6.463-.094c-1.563-.069-2.406-.331-2.969-.55a4.952 4.952 0 0 1-1.838-1.194 5.02 5.02 0 0 1-1.2-1.837c-.219-.563-.481-1.413-.55-2.969-.075-1.688-.094-2.194-.094-6.463s.019-4.781.094-6.463c.069-1.563.331-2.406.55-2.969a4.964 4.964 0 0 1 1.194-1.838 5.015 5.015 0 0 1 1.838-1.2c.563-.219 1.412-.481 2.969-.55 1.681-.075 2.188-.094 6.463-.094zM16 0c-4.344 0-4.887.019-6.594.094-1.7.075-2.869.35-3.881.744-1.056.412-1.95.956-2.837 1.85a7.833 7.833 0 0 0-1.85 2.831C.444 6.538.169 7.7.094 9.4.019 11.113 0 11.656 0 16s.019 4.887.094 6.594c.075 1.7.35 2.869.744 3.881.413 1.056.956 1.95 1.85 2.837a7.82 7.82 0 0 0 2.831 1.844c1.019.394 2.181.669 3.881.744 1.706.075 2.25.094 6.594.094s4.888-.019 6.594-.094c1.7-.075 2.869-.35 3.881-.744 1.05-.406 1.944-.956 2.831-1.844s1.438-1.781 1.844-2.831c.394-1.019.669-2.181.744-3.881.075-1.706.094-2.25.094-6.594s-.019-4.887-.094-6.594c-.075-1.7-.35-2.869-.744-3.881a7.506 7.506 0 0 0-1.831-2.844A7.82 7.82 0 0 0 26.482.843C25.463.449 24.301.174 22.601.099c-1.712-.081-2.256-.1-6.6-.1z" />
      <path
        d="M16 7.781c-4.537 0-8.219 3.681-8.219 8.219s3.681 8.219 8.219 8.219 8.219-3.681 8.219-8.219A8.221 8.221 0 0 0 16 7.781zm0 13.55a5.331 5.331 0 1 1 0-10.663 5.331 5.331 0 0 1 0 10.663zM26.462 7.456a1.919 1.919 0 1 1-3.838 0 1.919 1.919 0 0 1 3.838 0z" />
    </symbol>
    <symbol id="icon-file-pdf" viewBox="0 0 32 32">
      <path
        d="M26.313 18.421c-.427-.42-1.372-.643-2.812-.662-.974-.011-2.147.075-3.38.248-.552-.319-1.122-.665-1.568-1.083-1.202-1.122-2.205-2.68-2.831-4.394.041-.16.075-.301.108-.444 0 0 .677-3.846.498-5.146a1.526 1.526 0 0 0-.088-.369l-.059-.151c-.184-.425-.545-.875-1.111-.85l-.341-.011c-.631 0-1.146.323-1.281.805-.411 1.514.013 3.778.781 6.711l-.197.478c-.55 1.34-1.238 2.689-1.846 3.88l-.079.155a65.82 65.82 0 0 1-1.745 3.213l-.543.287c-.04.021-.97.513-1.188.645-1.852 1.106-3.079 2.361-3.282 3.357-.065.318-.017.725.313.913l.525.264c.228.114.468.172.714.172 1.319 0 2.85-1.643 4.959-5.324a49.318 49.318 0 0 1 7.638-1.815c1.852 1.043 4.129 1.767 5.567 1.767.255 0 .475-.024.654-.072a1.11 1.11 0 0 0 .65-.444c.279-.42.335-.998.26-1.59-.023-.176-.163-.393-.315-.541zM6.614 25.439c.241-.658 1.192-1.958 2.6-3.111.088-.072.306-.276.506-.466-1.472 2.348-2.458 3.283-3.106 3.577zM14.951 6.24c.424 0 .665 1.069.685 2.07s-.214 1.705-.505 2.225c-.241-.77-.357-1.984-.357-2.778 0 0-.018-1.517.177-1.517zm-2.487 13.682c.295-.529.603-1.086.917-1.677a31.984 31.984 0 0 0 1.609-3.511c.716 1.303 1.608 2.41 2.656 3.297.131.111.269.222.415.333-2.132.422-3.974.935-5.596 1.558zm13.439-.12c-.13.081-.502.128-.741.128-.772 0-1.727-.353-3.066-.927.515-.038.986-.057 1.409-.057.774 0 1.004-.003 1.761.19s.767.585.637.667z" />
      <path
        d="M28.681 7.159c-.694-.947-1.662-2.053-2.724-3.116s-2.169-2.03-3.116-2.724C21.229.137 20.448 0 20 0H4.5A2.503 2.503 0 0 0 2 2.5v27C2 30.878 3.121 32 4.5 32h23c1.378 0 2.5-1.122 2.5-2.5V10c0-.448-.137-1.23-1.319-2.841zm-4.138-1.702A27.334 27.334 0 0 1 26.811 8H22V3.189a27.334 27.334 0 0 1 2.543 2.268zM28 29.5c0 .271-.229.5-.5.5h-23a.507.507 0 0 1-.5-.5v-27c0-.271.229-.5.5-.5H20v7a1 1 0 0 0 1 1h7v19.5z" />
    </symbol>
    <symbol id="icon-bezpechno" viewBox="0 0 32 32">
      <path
        d="M14.55 2.2c-0.95 1-1.4 1.1-2.8 0.8-1.6-0.35-1.75-0.3-2.25 1.3-0.4 1.2-1 1.8-2.2 2.2-1.55 0.5-1.65 0.65-1.3 2.15 0.3 1.3 0.1 1.85-0.9 2.95l-1.3 1.4 1.3 1.35c1 1.15 1.2 1.7 0.9 3-0.35 1.5-0.25 1.65 1.3 2.15 1.2 0.4 1.8 1 2.2 2.2 0.5 1.55 0.65 1.65 2.15 1.3 1.3-0.3 1.85-0.1 3 0.9l1.35 1.3 1.4-1.3c1.1-1 1.65-1.2 2.95-0.9 1.5 0.35 1.65 0.25 2.15-1.3 0.4-1.2 1-1.8 2.2-2.2 1.55-0.5 1.65-0.65 1.3-2.15-0.3-1.3-0.1-1.85 0.9-3l1.3-1.35-1.3-1.4c-1-1.1-1.2-1.65-0.9-2.95 0.35-1.5 0.25-1.65-1.3-2.15-1.2-0.4-1.8-1-2.2-2.2-0.5-1.6-0.65-1.65-2.25-1.3-1.4 0.3-1.85 0.2-2.8-0.8-0.6-0.65-1.25-1.2-1.45-1.2s-0.85 0.55-1.45 1.2zM23 9.95c0 0.15-1.8 2.1-3.95 4.25l-3.95 3.95-1.95-1.5c-1.050-0.85-2.3-2-2.8-2.55-1.5-1.65-0.1-1.85 2.45-0.35l2.25 1.3 3.35-2.95c2.85-2.55 4.6-3.4 4.6-2.15z">
      </path>
      <path
        d="M6.25 24.5l-1.95 2h5.2l0.3 2c0.2 1.1 0.5 2.15 0.7 2.25 0.25 0.15 1.2-1.050 2.15-2.6 2.4-3.95 1.8-4.7-2.75-3.35-0.55 0.15-0.95-0.2-1.25-1.050l-0.4-1.3-2 2.050z">
      </path>
      <path
        d="M23.5 23c0 1.65-0.7 2-2.7 1.45-1.5-0.4-2.1-0.4-2.6 0.15-0.55 0.55-0.35 1.15 1.1 3.55 1 1.55 1.95 2.75 2.2 2.6 0.2-0.1 0.5-1.1 0.7-2.2 0.3-2 0.3-2 2.85-2.15l2.5-0.15-2-2c-1.25-1.15-2.050-1.65-2.050-1.25z">
      </path>
    </symbol>
    <symbol id="icon-ekonomichno" viewBox="0 0 32 32">
      <path
        d="M12.672 2.944c-1.92 1.024-3.712 3.904-3.712 6.016 0 3.392 3.648 7.040 7.040 7.040s7.040-3.648 7.040-7.040c0-2.176-1.792-4.992-3.84-6.080-2.304-1.216-4.288-1.216-6.528 0.064zM17.472 6.080c1.152 1.6 0.704 2.24-0.64 0.896-0.704-0.704-2.112-0.32-2.112 0.576 0 0.256 0.896 0.832 1.92 1.216 2.24 0.832 2.432 2.048 0.64 3.712-1.28 1.152-1.344 1.152-2.688-0.192-0.768-0.768-1.152-1.6-0.896-1.856 0.32-0.32 0.704-0.128 0.832 0.256 0.32 0.96 2.752 1.152 2.752 0.256 0-0.384-0.768-1.024-1.728-1.472-2.048-0.96-2.24-1.792-0.832-3.712 1.152-1.6 1.344-1.6 2.752 0.32z">
      </path>
      <path
        d="M3.328 17.6c-1.792 0.832-3.328 1.664-3.328 1.792 0 0.384 3.264 7.744 3.584 8.064 0.128 0.128 0.96-0.128 1.856-0.576 1.472-0.768 2.048-0.64 6.016 1.28 2.944 1.408 4.928 1.984 5.888 1.728 0.832-0.256 4.416-2.368 7.936-4.736 4.48-3.072 6.4-4.736 6.4-5.632 0-2.176-1.984-1.792-6.528 1.216-4.032 2.752-4.608 2.944-8.192 2.816l-3.84-0.064 3.84-0.384c3.264-0.32 3.84-0.576 3.84-1.664 0-0.96-0.64-1.344-2.752-1.792-1.536-0.32-3.776-1.216-5.056-2.112-2.88-1.92-5.376-1.92-9.664 0.064z">
      </path>
      <path d="M19.2 17.408c-2.176 1.408-2.24 1.408-0.64 1.664s5.76-1.536 5.76-2.56c0-1.024-2.88-0.512-5.12 0.896z">
      </path>
      <path
        d="M23.552 18.048c-2.624 1.536-2.688 1.664-1.856 3.008 0.448 0.704 1.088 0.576 3.52-0.96 4.48-2.816 2.88-4.736-1.664-2.048z">
      </path>
    </symbol>
    <symbol id="icon-profesiyno" viewBox="0 0 32 32">
      <path
        d="M9.344 2.304c-1.92 1.92-1.152 4.224 1.792 5.376l1.856 0.704-1.792 1.856c-1.216 1.28-1.856 2.752-2.048 4.736-0.384 3.008-1.6 3.84-3.2 2.24-1.024-1.024-3.904-0.192-4.352 1.344-0.576 1.792 0.192 3.712 1.664 4.16 1.856 0.64 3.712-0.256 4.16-1.92 0.576-2.24 1.856-2.368 3.84-0.256 0.96 1.024 2.176 1.856 2.624 1.856 1.28 0 0.96 1.792-0.384 2.24-2.496 0.768-2.496 4.992 0 5.76 3.136 1.024 5.696-2.368 3.52-4.736-1.28-1.408-1.344-2.624 0-2.624 0.576 0 1.984-0.448 3.2-1.024 2.56-1.216 4.096-0.448 4.096 2.048 0 2.944 3.328 4.48 5.376 2.432 2.24-2.24 0.32-5.76-2.88-5.12-2.176 0.448-3.84-1.28-3.136-3.136 0.832-1.984 0.704-4.288-0.256-6.208-0.832-1.536-0.768-1.856 0.064-2.56 0.576-0.448 1.664-0.704 2.432-0.64 2.88 0.384 4.608-3.2 2.496-5.248-2.048-2.112-5.632-0.384-5.248 2.496 0.064 0.768-0.192 1.856-0.64 2.432-0.704 0.832-1.024 0.832-2.752 0-1.088-0.512-2.816-0.832-3.84-0.704-2.112 0.32-3.072-0.448-1.92-1.6 1.664-1.664 0-4.928-2.496-4.928-0.64 0-1.664 0.448-2.176 1.024zM18.432 11.648c0.96 0.96 1.024 4.096 0.128 4.672-1.152 0.704-0.64 2.752 0.832 3.136 1.408 0.384 1.408 0.448 0.192 1.344-1.6 1.216-4.288 1.216-5.888 0-1.216-0.896-1.216-0.96 0.256-1.344 1.408-0.384 1.92-2.432 0.768-3.136-0.896-0.576-0.832-3.712 0.128-4.672 0.448-0.448 1.216-0.768 1.792-0.768s1.344 0.32 1.792 0.768z">
      </path>
    </symbol>
    <symbol id="icon-yakisno" viewBox="0 0 32 32">
      <path
        d="M3.328 4.032c-0.768 0.832-1.408 2.24-1.408 3.2v1.728h17.92v-1.792c0-0.96 0.448-2.432 1.024-3.2l0.96-1.408h-8.576c-8.128 0-8.64 0.064-9.92 1.472z">
      </path>
      <path
        d="M22.464 3.776c-0.512 0.32-1.088 1.856-1.28 3.392l-0.384 2.752-15.040 0.384v19.136h5.12c4.096 0 5.12 0.192 5.12 0.96 0 1.152 0.128 1.152 2.24 0.192 1.216-0.576 1.792-0.576 2.368 0 1.024 1.024 1.792 0.96 1.792-0.192 0-0.704 0.704-0.96 2.56-0.96h2.56v-12.096c0-10.176-0.192-12.288-1.024-13.12-1.088-1.152-2.688-1.28-4.032-0.448zM23.040 12.8c0 0.384-2.56 0.64-6.4 0.64s-6.4-0.256-6.4-0.64c0-0.384 2.56-0.64 6.4-0.64s6.4 0.256 6.4 0.64zM23.040 16.64c0 0.384-2.56 0.64-6.4 0.64s-6.4-0.256-6.4-0.64c0-0.384 2.56-0.64 6.4-0.64s6.4 0.256 6.4 0.64zM21.12 20.48c0.704 0.704 1.28 1.472 1.28 1.792 0 1.152-2.112 3.328-3.2 3.328s-3.2-2.176-3.2-3.328c0-0.704 2.432-3.072 3.2-3.072 0.384 0 1.216 0.576 1.92 1.28zM21.12 28.224c0 1.152-0.128 1.216-0.96 0.576-0.768-0.64-1.152-0.64-1.92 0-0.832 0.64-0.96 0.576-0.96-0.576 0-1.088 0.384-1.344 1.92-1.344s1.92 0.256 1.92 1.344z">
      </path>
    </symbol>
    <symbol id="icon-email" viewBox="0 0 24 32">
      <path
        d="M20 8h-16c-1.1 0-1.99 0.9-1.99 2l-0.010 12c0 1.1 0.9 2 2 2h16c1.1 0 2-0.9 2-2v-12c0-1.1-0.9-2-2-2zM19.6 12.25l-7.070 4.42c-0.32 0.2-0.74 0.2-1.060 0l-7.070-4.42c-0.25-0.16-0.4-0.43-0.4-0.72 0-0.67 0.73-1.070 1.3-0.72l6.7 4.19 6.7-4.19c0.57-0.35 1.3 0.050 1.3 0.72 0 0.29-0.15 0.56-0.4 0.72z">
      </path>
    </symbol>
    <symbol id="icon-person" viewBox="0 0 32 32">
      <path
        d="M16 16c2.947 0 5.333-2.387 5.333-5.333s-2.387-5.333-5.333-5.333c-2.947 0-5.333 2.387-5.333 5.333s2.387 5.333 5.333 5.333zM16 18.667c-3.56 0-10.667 1.787-10.667 5.333v1.333c0 0.733 0.6 1.333 1.333 1.333h18.667c0.733 0 1.333-0.6 1.333-1.333v-1.333c0-3.547-7.107-5.333-10.667-5.333z">
      </path>
    </symbol>
    <symbol id="icon-phone" viewBox="0 0 24 32">
      <path
        d="M19.635 18.487l-2.451-0.28c-0.589-0.067-1.167 0.135-1.582 0.55l-1.775 1.775c-2.731-1.389-4.969-3.618-6.359-6.359l1.785-1.785c0.415-0.415 0.618-0.994 0.55-1.582l-0.28-2.432c-0.116-0.975-0.936-1.708-1.92-1.708h-1.669c-1.090 0-1.997 0.907-1.93 1.997 0.511 8.24 7.102 14.821 15.332 15.332 1.090 0.068 1.997-0.839 1.997-1.93v-1.669c0.010-0.975-0.724-1.795-1.698-1.911z">
      </path>
    </symbol>
    <symbol id="icon-send" viewBox="0 0 38 32">
      <path
        d="M38.4 0l-38.4 18 12.272 3.788 18.928-14.788-14.397 16.186 0.012 0.004-0.014-0.004v8.814l6.882-6.691 8.718 2.691 6-28z">
      </path>
    </symbol>
  </defs>
</svg>